<svg xmlns="http://www.w3.org/2000/svg" width="1em" height="1em" fill="none" viewBox="0 0 35 20" class=" " stroke="none" style="height: 20px; width: 35px;"><rect width="34.369" height="19.369" x="0.316" y="0.316" fill="#fff" rx="1.988"></rect><g clip-path="url(#icon-gpay-payment_svg__a)"><path fill="#5F6368" d="M16.921 9.874v2.654h-.822V5.976h2.18a1.958 1.958 0 0 1 1.415.57c.382.35.597.857.587 1.38a1.848 1.848 0 0 1-.587 1.389 1.95 1.95 0 0 1-1.41.559h-1.363Zm0-3.093v2.288H18.3c.306.01.602-.115.811-.34.434-.428.44-1.133.02-1.577l-.02-.021a1.05 1.05 0 0 0-.811-.345l-1.379-.005Zm5.254 1.118c.607 0 1.087.167 1.44.496.352.335.526.79.526 1.369v2.758h-.787v-.621h-.035c-.342.512-.792.768-1.358.768-.48 0-.889-.147-1.21-.44a1.4 1.4 0 0 1-.486-1.096c0-.465.174-.83.516-1.108.342-.277.802-.412 1.373-.412.49 0 .889.094 1.206.271v-.193a.973.973 0 0 0-.337-.742 1.18 1.18 0 0 0-.792-.308c-.46 0-.822.198-1.093.595l-.725-.465c.394-.58.98-.872 1.762-.872Zm-1.062 3.255c0 .22.102.423.27.548a.989.989 0 0 0 .639.22c.347 0 .679-.141.924-.392.27-.261.408-.57.408-.925-.255-.209-.612-.313-1.072-.313-.332 0-.613.083-.837.245-.22.167-.332.371-.332.617Zm7.541-3.109-2.747 6.457h-.847l1.02-2.256-1.807-4.196h.894l1.302 3.219h.02l1.272-3.219.893-.005Z"></path><path fill="#4285F4" d="M13.597 9.3c0-.257-.02-.512-.061-.763h-3.467v1.447h1.986a1.745 1.745 0 0 1-.736 1.144v.94h1.185c.694-.653 1.093-1.62 1.093-2.769Z"></path><path fill="#34A853" d="M10.07 12.977c.991 0 1.829-.334 2.436-.909l-1.184-.94c-.332.23-.756.36-1.251.36-.96 0-1.772-.663-2.063-1.552h-1.22v.972a3.673 3.673 0 0 0 3.283 2.069Z"></path><path fill="#FBBC04" d="M8.007 9.937a2.32 2.32 0 0 1 0-1.442v-.967h-1.22a3.8 3.8 0 0 0 0 3.375l1.22-.966Z"></path><path fill="#EA4335" d="M10.07 6.943a1.954 1.954 0 0 1 1.41.564l1.047-1.07a3.466 3.466 0 0 0-2.456-.983c-1.389 0-2.66.805-3.283 2.074l1.22.972c.291-.893 1.103-1.557 2.063-1.557Z"></path></g><rect width="34.369" height="19.369" x="0.316" y="0.316" stroke="#E8E9EA" stroke-width="0.631" rx="1.988"></rect><defs><clipPath id="icon-gpay-payment_svg__a"><path fill="#fff" d="M6.344 5.455h22.313v9.09H6.344z"></path></clipPath></defs></svg>