<svg xmlns="http://www.w3.org/2000/svg" width="1em" height="1em" fill="none" viewBox="0 0 44 20" class=" " stroke="none" style="height: 20px; width: 35px;"><rect width="43.369" height="19.369" x="0.316" y="0.316" fill="#fff" rx="1.988"></rect><g clip-path="url(#icon-rupay-payment_svg__a)"><path fill="#2A2A89" d="M23.188 7.981c.138-1.125-.694-1.594-1.732-1.594H18.73l-1.609 6.05h1.733l.487-1.866 1.38.008s2.139.093 2.468-2.599v.001Zm-1.782.6c-.225.65-.847.573-.847.573h-.848l.335-1.285s.537.003.891.003c.434 0 .592.355.47.71ZM13.29 8.04h1.58l-.651 2.583s-.162.576.36.62c.412.036.72-.472.82-.816.132-.451.646-2.386.646-2.386h1.628l-1.239 4.395h-1.421l.174-.628s-.725.912-1.802.803c-.958-.097-1.04-.814-.874-1.708.081-.439.779-2.862.779-2.862Z"></path><path fill="#2A2A89" d="M27.032 10.269c.209-.731.471-1.424.26-1.807-.325-.587-.911-.639-1.769-.639-.948 0-2.117.185-2.499 1.485h1.578s.143-.49.736-.458c.524.027.495.399.302.604-.339.36-1.274.16-2.31.532-.906.323-1.223 1.551-1.026 2.041.19.475.546.536 1.024.585.77.078 1.36-.365 1.634-.624 0 .288.007.45.007.45h1.66l-.004-.162s-.148-.04-.131-.255c.012-.157.299-.912.538-1.752Zm-2.387 1.272c-.27.07-.599.11-.664-.144-.178-.695 1.4-.898 1.4-.898.01.633-.527.988-.735 1.043v-.001ZM12.896 7.796c.137-1.125-.823-1.409-1.86-1.409H8.309l-1.61 6.05h1.733l.542-2.055.972.008s.4-.024.409.364c.008.414-.298 1.176-.278 1.681h1.78l-.004-.16s-.148-.041-.131-.256c.006-.089.102-.371.227-.752.075-.167.19-.565.178-.89-.013-.404-.259-.592-.614-.723 1.107-.268 1.383-1.86 1.383-1.86v.002Zm-1.839.772c-.224.535-.918.474-.918.474l-.809-.004.295-1.133 1.079.003c.38 0 .498.314.353.66ZM27.782 8.04h1.61v2.638l1.393-2.637h1.477l-2.978 5.33s-.276.448-.62.684c-.282.195-.628.187-.733.194-.589-.006-1.298-.007-1.298-.007l.342-1.271.554-.002s.253-.027.351-.155a.647.647 0 0 0 .141-.426c0-.27-.238-4.348-.238-4.348Z"></path><path fill="#0F8047" d="m34.326 7.026-1.858 6.666 3.478-3.332-1.62-3.334Z"></path><path fill="#F0721D" d="m33.135 7.026-1.858 6.666 3.478-3.332-1.62-3.334Z"></path></g><rect width="43.369" height="19.369" x="0.316" y="0.316" stroke="#E8E9EA" stroke-width="0.631" rx="1.988"></rect><defs><clipPath id="icon-rupay-payment_svg__a"><path fill="#fff" d="M6.7 5.75h30.6v8.5H6.7z"></path></clipPath></defs></svg>