<svg xmlns="http://www.w3.org/2000/svg" width="1em" height="1em" fill="none" viewBox="0 0 35 20" class=" " stroke="none" style="height: 20px; width: 35px;"><rect width="34.369" height="19.369" x="0.316" y="0.316" fill="#fff" rx="1.988"></rect><g fill-rule="evenodd" clip-path="url(#icon-paytm-payment_svg__a)" clip-rule="evenodd"><path fill="#1E398D" d="M6.182 7.834c0-.158.107-.239.239-.239h2.312c.711.081 1.205.443 1.257 1.393v1.286c0 .192-.013.354-.069.537-.183.617-.626.924-1.286.97h-.992v1.572c0 .12-.098.18-.222.18H6.382c-.128 0-.221-.073-.221-.214l.021-5.485Zm1.47 1.222h.617c.136 0 .251.115.251.251v.742c0 .14-.115.25-.251.25H7.65V9.053v.004ZM11.126 7.604h1.619c.945.055 1.46.553 1.443 1.584v3.816c0 .298-.298.52-.553.52h-2.121c-.643 0-1.07-.503-1.176-.993-.102-.473-.025-1.043-.025-1.524 0-.746.494-1.483 1.316-1.483h.864c.252-.012.239-.562 0-.54h-1.35c-.136 0-.234-.073-.247-.213V7.77c0-.128.107-.166.23-.166Zm.89 3.3h.494c.115 0 .213.094.213.213v.86a.214.214 0 0 1-.213.213h-.494a.213.213 0 0 1-.213-.212v-.86c0-.116.094-.214.213-.214ZM14.687 7.872v2.41c.06.759.736 1.321 1.473 1.321h.681c.282 0 .265.473 0 .473h-1.477c-.162 0-.218.085-.218.226v1.06c0 .107.086.188.2.188h1.368c1.141 0 1.793-.55 1.793-1.777V7.78c0-.132-.081-.183-.162-.183h-1.146c-.106 0-.166.114-.166.2v2.193c0 .094-.05.15-.136.15h-.541c-.123 0-.192-.07-.192-.188V7.834c0-.14-.055-.243-.213-.243h-1.103c-.123 0-.157.124-.157.281h-.005Z"></path><path fill="#00AEEF" d="M19.086 8.865V7.82c0-.11.094-.204.204-.204h.252c.647-.136.8-.515 1.196-.941.243-.264.456-.332.614-.056v.993h.591c.111 0 .205.093.205.204v1.044c0 .11-.094.204-.204.204h-.592v4.272c0 .11-.09.204-.205.204h-1.043a.205.205 0 0 1-.205-.204V9.069h-.609a.204.204 0 0 1-.204-.204ZM26.471 13.273c0 .14-.115.251-.255.251h-.976a.255.255 0 0 1-.255-.251V9.35c.008-.425-.848-.49-.848 0v3.923c0 .14-.115.251-.255.251h-.976a.255.255 0 0 1-.255-.251V7.834c0-.14.115-.255.256-.255h.975c.14 0 .255.115.255.255v.077c.571-.545 1.56-.46 2.087.106.993-1.137 2.688-.123 2.61 1.125 0 1.375-.012 2.742-.012 4.13 0 .141-.115.252-.255.252h-.976a.255.255 0 0 1-.255-.251V9.376c-.056-.545-.877-.417-.877 0 0 1.295.008 2.59.008 3.897h.004Z"></path></g><rect width="34.369" height="19.369" x="0.316" y="0.316" stroke="#E8E9EA" stroke-width="0.631" rx="1.988"></rect><defs><clipPath id="icon-paytm-payment_svg__a"><path fill="#fff" d="M6.16 6.446h22.68v7.108H6.16z"></path></clipPath></defs></svg>