<svg xmlns="http://www.w3.org/2000/svg" width="1em" height="1em" fill="none" viewBox="0 0 16 17" class=" " stroke="none" style="font-size: 16px;"><path fill="#fff" d="M8.012 0a8.011 8.011 0 0 0-2.92 15.47c-.071-.634-.134-1.605.027-2.298.146-.626.94-3.98.94-3.98S5.818 8.71 5.818 8c0-1.111.646-1.945 1.448-1.945.685 0 1.015.513 1.015 1.128 0 .687-.437 1.715-.663 2.668-.19.797.4 1.446 1.186 1.446 1.422 0 2.518-1.5 2.518-3.667 0-1.912-1.379-3.254-3.347-3.254-2.279 0-3.615 1.713-3.615 3.475 0 .69.264 1.432.595 1.832.066.08.074.15.056.23-.06.251-.195.802-.223.911-.035.15-.115.181-.268.11-.999-.46-1.626-1.923-1.626-3.104 0-2.524 1.837-4.847 5.293-4.847 2.779 0 4.94 1.983 4.94 4.627 0 2.763-1.742 4.987-4.165 4.987-.812 0-1.573-.42-1.843-.922l-.501 1.903c-.18.699-.671 1.572-1.001 2.103A8.015 8.015 0 0 0 16 8.028 8.014 8.014 0 0 0 7.99.018L8.012 0Z"></path></svg>