<svg xmlns="http://www.w3.org/2000/svg" width="1em" height="1em" fill="none" viewBox="0 0 16 17" class=" " stroke="none" style="font-size: 16px;"><path fill="#fff" d="M4.64.02h6.72C13.92.02 16 2.1 16 4.66v6.72a4.64 4.64 0 0 1-4.64 4.64H4.64C2.08 16.02 0 13.94 0 11.38V4.66A4.64 4.64 0 0 1 4.64.02Zm-.16 1.6A2.88 2.88 0 0 0 1.6 4.5v7.04a2.878 2.878 0 0 0 2.88 2.88h7.04a2.88 2.88 0 0 0 2.88-2.88V4.5a2.878 2.878 0 0 0-2.88-2.88H4.48Zm7.72 1.2a1 1 0 1 1 0 2 1 1 0 0 1 0-2ZM8 4.02a4 4 0 1 1 0 8 4 4 0 0 1 0-8Zm0 1.6a2.4 2.4 0 1 0 0 4.8 2.4 2.4 0 0 0 0-4.8Z"></path></svg>