<svg xmlns="http://www.w3.org/2000/svg" width="1em" height="1em" fill="none" viewBox="0 0 16 16" class=" " stroke="none" style="font-size: 16px;"><path fill="#fff" d="M8.137.548c.66 0 2.898.184 3.954 2.548.352.795.268 2.146.199 3.231l-.002.04c-.008.12-.015.23-.02.34.05.03.135.06.267.06.2-.01.44-.08.69-.2.11-.06.228-.07.308-.07.122 0 .24.02.34.06.3.1.49.32.49.559.01.299-.26.559-.81.778-.059.02-.139.05-.229.08-.3.09-.76.24-.889.54-.06.149-.04.349.08.578l.01.01c.04.091 1.018 2.317 3.194 2.676.17.03.29.18.28.34 0 .05-.01.1-.03.15-.16.38-.848.658-2.097.847-.04.06-.08.25-.11.38-.019.12-.049.24-.089.369-.05.18-.18.27-.37.27h-.02c-.09 0-.208-.02-.358-.05-.24-.05-.51-.09-.849-.09-.2 0-.4.01-.609.05-.4.07-.748.31-1.148.59-.569.398-1.218.858-2.196.858-.04 0-.08-.01-.12-.01h-.1c-.978 0-1.618-.45-2.186-.859-.399-.28-.738-.52-1.138-.59a4.4 4.4 0 0 0-.618-.049c-.36 0-.639.06-.848.1-.141.028-.261.05-.36.05-.25 0-.35-.15-.39-.28-.04-.129-.06-.26-.09-.379-.03-.12-.07-.33-.11-.38-1.278-.148-1.966-.428-2.126-.817a.4.4 0 0 1-.036-.15.33.33 0 0 1 .28-.34c2.176-.36 3.153-2.586 3.194-2.68l.01-.019c.12-.23.15-.43.08-.58-.13-.289-.59-.438-.888-.539-.081-.019-.16-.049-.231-.079-.738-.29-.838-.62-.798-.849.06-.319.45-.528.779-.528.097 0 .18.019.255.049.28.13.526.2.736.2a.63.63 0 0 0 .31-.07l-.03-.38c-.066-1.083-.15-2.433.204-3.224C4.928.738 7.159.558 7.818.558l.28-.01h.04Z"></path></svg>