<svg xmlns="http://www.w3.org/2000/svg" width="1em" height="1em" fill="none" viewBox="0 0 16 14" class=" " stroke="none" style="font-size: 16px;"><path fill="#fff" d="M16 2.048a6.553 6.553 0 0 1-1.882.528 3.287 3.287 0 0 0 1.438-1.82 6.608 6.608 0 0 1-2.08.803C12.872.901 12.023.519 11.06.519a3.277 3.277 0 0 0-3.265 3.28c0 .26.03.513.084.75a9.326 9.326 0 0 1-6.761-3.426 3.246 3.246 0 0 0-.444 1.644c0 1.14.574 2.15 1.46 2.723a3.245 3.245 0 0 1-1.49-.382v.023a3.284 3.284 0 0 0 2.63 3.22c-.48.131-.986.15-1.476.053a3.274 3.274 0 0 0 3.06 2.28A6.517 6.517 0 0 1 .78 12.09c-.26 0-.52-.016-.78-.046a9.288 9.288 0 0 0 5.033 1.476c6.026 0 9.338-5.002 9.338-9.339 0-.145 0-.283-.008-.428A6.557 6.557 0 0 0 16 2.048Z"></path></svg>