<svg xmlns="http://www.w3.org/2000/svg" width="1em" height="1em" fill="none" viewBox="0 0 35 20" class=" " stroke="none" style="height: 20px; width: 35px;"><rect width="34.369" height="19.369" x="0.316" y="0.316" fill="#fff" rx="1.988"></rect><g clip-path="url(#icon-phonepay-payment_svg__a)"><path fill="#5F259F" d="M18.72 4.83a5.31 5.31 0 1 0-2.44 10.338A5.31 5.31 0 0 0 18.72 4.83Z"></path><path fill="#fff" d="M19.911 8.614a.393.393 0 0 0-.386-.382h-.712L17.181 6.36a.605.605 0 0 0-.623-.179l-.566.179a.132.132 0 0 0-.06.207l1.783 1.691h-2.7a.14.14 0 0 0-.147.148v.297a.392.392 0 0 0 .386.385h.416v1.425c0 1.068.564 1.692 1.513 1.692.285.008.567-.042.831-.15v.952a.469.469 0 0 0 .475.475h.415a.192.192 0 0 0 .178-.178V9.059h.68a.14.14 0 0 0 .15-.149v-.296Zm-1.902 2.551c-.187.082-.39.122-.594.119-.475 0-.712-.237-.712-.772V9.088h1.306v2.077Z"></path></g><rect width="34.369" height="19.369" x="0.316" y="0.316" stroke="#E8E9EA" stroke-width="0.631" rx="1.988"></rect><defs><clipPath id="icon-phonepay-payment_svg__a"><path fill="#fff" d="M12.188 4.688h10.624v10.625H12.188z"></path></clipPath></defs></svg>