<svg xmlns="http://www.w3.org/2000/svg" width="1em" height="1em" fill="none" viewBox="0 0 27 20" class=" " stroke="none" style="height: 20px; width: 35px;"><rect width="26.369" height="19.369" x="0.316" y="0.316" fill="#fff" rx="1.988"></rect><path fill="#FF5F00" d="M15.667 6.106h-4.335v7.789h4.335v-7.79Z"></path><path fill="#EB001B" d="M11.608 10A4.944 4.944 0 0 1 13.5 6.106a4.953 4.953 0 1 0 0 7.788A4.945 4.945 0 0 1 11.608 10Z"></path><path fill="#F79E1B" d="M21.514 10a4.954 4.954 0 0 1-8.014 3.894 4.955 4.955 0 0 0 0-7.788A4.953 4.953 0 0 1 21.514 10ZM21.043 13.07v-.16h.064v-.033h-.163v.033h.064v.16h.035Zm.318 0v-.193h-.05l-.058.132-.058-.132h-.05v.192h.035v-.145l.055.125h.036l.054-.125v.145h.036Z"></path><rect width="26.369" height="19.369" x="0.316" y="0.316" stroke="#E8E9EA" stroke-width="0.631" rx="1.988"></rect></svg>