<svg xmlns="http://www.w3.org/2000/svg" width="1em" height="1em" fill="none" viewBox="0 0 12 14" class=" " stroke="none" style="font-size: 16px;"><path fill="#fff" d="M10.023 7.363c.014-1.069.626-2.08 1.596-2.64-.612-.82-1.637-1.34-2.703-1.372-1.138-.112-2.24.64-2.82.64-.591 0-1.483-.629-2.444-.61-1.253.038-2.42.707-3.03 1.735-1.31 2.129-.333 5.258.922 6.979.628.842 1.362 1.784 2.322 1.75.94-.036 1.29-.562 2.424-.562 1.124 0 1.453.562 2.432.541 1.009-.015 1.644-.846 2.25-1.697.45-.6.798-1.264 1.028-1.966-1.185-.47-1.976-1.59-1.977-2.798ZM8.172 2.22c.55-.62.82-1.416.755-2.22-.84.083-1.615.46-2.172 1.055a2.862 2.862 0 0 0-.775 2.138c.84.008 1.666-.359 2.192-.974Z"></path></svg>