<svg xmlns="http://www.w3.org/2000/svg" id="_Group_" width="264" height="36" data-name="&lt;Group&gt;" viewBox="0 0 264 36"><defs><style>.cls-1{fill:#febf00;fill-rule:evenodd}</style></defs><g id="_Group_2" data-name="&lt;Group&gt;"><g id="_Group_3" data-name="&lt;Group&gt;"><g id="_Group_4" data-name="&lt;Group&gt;"><g id="_Group_5" data-name="&lt;Group&gt;"><g id="_Group_6" data-name="&lt;Group&gt;"><path id="_Compound_Path_" d="M25.123 27.321a6.648 6.648 0 0 1-.337 2.229 4.915 4.915 0 0 1-.938 1.627 4.761 4.761 0 0 1-1.443 1.106 8.694 8.694 0 0 1-1.86.673 14.068 14.068 0 0 1-2.172.345q-1.154.1-2.389.1H0V11.368h15.7q.946 0 1.9.08a11.449 11.449 0 0 1 1.82.3 7.435 7.435 0 0 1 1.611.6 4.427 4.427 0 0 1 1.3 1.01 4.53 4.53 0 0 1 .866 1.507 6.254 6.254 0 0 1 .312 2.084 5.125 5.125 0 0 1-1.058 3.407 5.477 5.477 0 0 1-3.335 1.675 11.438 11.438 0 0 1 2.75.489 5.154 5.154 0 0 1 1.868 1.026 3.848 3.848 0 0 1 1.058 1.587 6.473 6.473 0 0 1 .331 2.188ZM17.7 17.893a2.453 2.453 0 0 0-.128-.794 1.518 1.518 0 0 0-.465-.665 2.525 2.525 0 0 0-.914-.465 5.151 5.151 0 0 0-1.475-.176h-8.77v4.137h8.77a5.639 5.639 0 0 0 1.475-.16 2.5 2.5 0 0 0 .914-.433 1.414 1.414 0 0 0 .465-.649 2.45 2.45 0 0 0 .128-.795Zm1.379 8.738a2.467 2.467 0 0 0-.257-1.21 1.684 1.684 0 0 0-.8-.706 4.431 4.431 0 0 0-1.411-.329q-.866-.08-2.068-.08H5.948v4.665h8.593q1.2 0 2.068-.08a4.274 4.274 0 0 0 1.411-.337 1.726 1.726 0 0 0 .8-.713 2.467 2.467 0 0 0 .259-1.21Z" class="cls-1" data-name="&lt;Compound Path&gt;"/><path id="_Compound_Path_2" d="M53.134 32.307a31.643 31.643 0 0 1-5.411 1.293 38.382 38.382 0 0 1-5.523.393 24.162 24.162 0 0 1-6.421-.778 13.69 13.69 0 0 1-4.738-2.253 9.756 9.756 0 0 1-2.934-3.607 11.133 11.133 0 0 1-1.01-4.826 10.663 10.663 0 0 1 1.018-4.642A11.042 11.042 0 0 1 31 14.166a13.638 13.638 0 0 1 4.514-2.466 18.426 18.426 0 0 1 5.9-.89 17.7 17.7 0 0 1 5.491.81 11.886 11.886 0 0 1 4.281 2.4 10.779 10.779 0 0 1 2.774 3.912 13.614 13.614 0 0 1 .986 5.355v1.475H33.238A5.333 5.333 0 0 0 36 28.138a10.281 10.281 0 0 0 2.8.946 20.231 20.231 0 0 0 3.968.337 25.3 25.3 0 0 0 3.207-.2 27.107 27.107 0 0 0 2.934-.529 22.727 22.727 0 0 0 2.461-.729 10.689 10.689 0 0 0 1.772-.8v5.146Zm-4.1-11.912a5.2 5.2 0 0 0-.489-1.691 4.457 4.457 0 0 0-1.291-1.579 7.171 7.171 0 0 0-2.309-1.162 11.826 11.826 0 0 0-3.559-.457 10.777 10.777 0 0 0-3.463.5 8.8 8.8 0 0 0-2.445 1.235 6.186 6.186 0 0 0-1.531 1.587 4.978 4.978 0 0 0-.705 1.571H49.03Z" class="cls-1" data-name="&lt;Compound Path&gt;"/><path id="_Compound_Path_3" d="m79.622 11.368 5.627 15.3 6.092-15.3h6.173L88.665 33.4h-6.606L76.3 18.583 70.564 33.4h-6.606l-8.866-22.032h6.189l5.964 14.975L73 11.368h6.621Z" class="cls-1" data-name="&lt;Compound Path&gt;"/><path id="_Compound_Path_4" d="M118.006 33.4v-2.167a17.947 17.947 0 0 1-2.445 1.106 23.978 23.978 0 0 1-2.717.818 24.158 24.158 0 0 1-2.91.505 27.077 27.077 0 0 1-3.022.168 17.246 17.246 0 0 1-3.439-.337 9.479 9.479 0 0 1-2.942-1.09 6.017 6.017 0 0 1-2.06-1.972 5.43 5.43 0 0 1-.778-2.982 5.655 5.655 0 0 1 1.218-3.712 8.654 8.654 0 0 1 3.72-2.429 29.144 29.144 0 0 1 6.325-1.459q3.823-.513 9.05-.8v-.466a2.272 2.272 0 0 0-.288-1.082 2.465 2.465 0 0 0-1.05-.946 7.541 7.541 0 0 0-2.085-.665 18.287 18.287 0 0 0-3.375-.256 30.149 30.149 0 0 0-3.2.168q-1.58.168-3.046.457t-2.782.673q-1.315.385-2.389.8v-5.29q1.122-.288 2.517-.561t2.9-.473q1.507-.2 3.046-.321t2.95-.12a26.75 26.75 0 0 1 5.115.457 13.262 13.262 0 0 1 4.032 1.419A7.467 7.467 0 0 1 123 15.28a6.325 6.325 0 0 1 .954 3.511V33.4h-5.948Zm0-10.053q-3.431.129-5.828.369t-3.984.561a14.508 14.508 0 0 0-2.493.689 5.052 5.052 0 0 0-1.355.754 1.628 1.628 0 0 0-.553.77 2.736 2.736 0 0 0-.1.706 1.462 1.462 0 0 0 .209.745 1.733 1.733 0 0 0 .729.633 4.983 4.983 0 0 0 1.387.433 12.292 12.292 0 0 0 2.18.16 17.929 17.929 0 0 0 2.854-.224 18.792 18.792 0 0 0 2.646-.617 16.807 16.807 0 0 0 2.348-.93 14.407 14.407 0 0 0 1.964-1.146v-2.9Z" class="cls-1" data-name="&lt;Compound Path&gt;"/><path id="_Compound_Path_5" d="M149.705 33.4a8.179 8.179 0 0 0-2.637-5.483 9.836 9.836 0 0 0-2.405-1.619 15.829 15.829 0 0 0-2.75-1.018 18.779 18.779 0 0 0-2.814-.529 24.213 24.213 0 0 0-2.6-.152h-1.769v8.8h-5.948V11.368h5.948v8.5h1.219a18.245 18.245 0 0 0 2.581-.193 16.717 16.717 0 0 0 2.67-.609 14.548 14.548 0 0 0 2.541-1.074 9.559 9.559 0 0 0 2.18-1.6 8.551 8.551 0 0 0 1.6-2.188 7.841 7.841 0 0 0 .8-2.83h6.06a11.879 11.879 0 0 1-.7 3.159 11.189 11.189 0 0 1-1.331 2.525A10.675 10.675 0 0 1 150.587 19a13.982 13.982 0 0 1-2 1.435 14.129 14.129 0 0 1-2.045.994 14.748 14.748 0 0 1-1.9.6 16.476 16.476 0 0 1 2.332.553 14.574 14.574 0 0 1 2.4.994 12.824 12.824 0 0 1 2.269 1.515 11.266 11.266 0 0 1 1.948 2.1 11.694 11.694 0 0 1 1.443 2.742 12.921 12.921 0 0 1 .737 3.463h-6.06Z" class="cls-1" data-name="&lt;Compound Path&gt;"/><path id="_Compound_Path_6" d="M233.209 16.066q-1.042 0-1.868.08a3.777 3.777 0 0 0-1.4.385 2.036 2.036 0 0 0-.882.906 3.681 3.681 0 0 0-.3 1.643v.82h16.61v4.7h-16.61v8.8H222.8V18.583a8.623 8.623 0 0 1 .5-3.046 5.1 5.1 0 0 1 1.7-2.269 8.4 8.4 0 0 1 3.143-1.411 20.478 20.478 0 0 1 4.873-.489h13.131v4.7h-12.938Z" class="cls-1" data-name="&lt;Compound Path&gt;"/></g></g><g id="_Group_7" data-name="&lt;Group&gt;"><path id="_Compound_Path_7" d="M187.589 22.225a11.709 11.709 0 0 1-1.066 5.125 9.993 9.993 0 0 1-3.05 3.715 13.964 13.964 0 0 1-4.813 2.255 24.426 24.426 0 0 1-6.354.763 24.61 24.61 0 0 1-6.371-.763 14.128 14.128 0 0 1-4.846-2.255 10.083 10.083 0 0 1-3.084-3.715 11.571 11.571 0 0 1-1.082-5.125 11.573 11.573 0 0 1 1.082-5.125 10.09 10.09 0 0 1 3.084-3.714 14.128 14.128 0 0 1 4.846-2.255 26.926 26.926 0 0 1 12.725 0 13.964 13.964 0 0 1 4.813 2.255 10 10 0 0 1 3.05 3.714 11.711 11.711 0 0 1 1.066 5.125Z" class="cls-1" data-name="&lt;Compound Path&gt;"/><path id="_Compound_Path_8" d="M220.157 22.225a11.723 11.723 0 0 1-1.066 5.125 10 10 0 0 1-3.05 3.715 13.978 13.978 0 0 1-4.814 2.255 24.426 24.426 0 0 1-6.354.763 24.615 24.615 0 0 1-6.371-.763 14.136 14.136 0 0 1-4.846-2.255 10.07 10.07 0 0 1-3.083-3.715 11.558 11.558 0 0 1-1.083-5.125 11.56 11.56 0 0 1 1.083-5.125 10.077 10.077 0 0 1 3.083-3.714 14.137 14.137 0 0 1 4.846-2.255 26.926 26.926 0 0 1 12.725 0 13.978 13.978 0 0 1 4.814 2.255 10.009 10.009 0 0 1 3.05 3.714 11.725 11.725 0 0 1 1.066 5.125Z" class="cls-1" data-name="&lt;Compound Path&gt;"/><path id="_Path_" d="m218.28 11.33-2.467-2.31a10.329 10.329 0 0 0-8.059-2.52l-4.459.532-.535-4.477 4.459-.532a14.843 14.843 0 0 1 11.613 3.642l.044.035 2.489 2.331Z" class="cls-1" data-name="&lt;Path&gt;"/></g></g></g></g><g id="_Group_8" data-name="&lt;Group&gt;"><path id="_Guide_" d="M-9636.69 656.179h16383" class="cls-1" data-name="&lt;Guide&gt;"/><path id="_Compound_Path_9" d="M257.821 14.84h-.1l-.3-.025h-.04a.186.186 0 0 0-.081-.011h-.053l-.23-.036a.189.189 0 0 0-.079 0 .072.072 0 0 0-.069-.024h-.026a6.865 6.865 0 0 1-.8-.225c-.119-.043-.237-.09-.356-.135a.055.055 0 0 0-.04-.016.333.333 0 0 0-.121-.051.023.023 0 0 0-.012 0c0-.007 0-.014-.015-.011a.022.022 0 0 0-.012 0c0-.007 0-.014-.015-.011a.022.022 0 0 0-.012 0c0-.007-.005-.014-.015-.011h-.025a.033.033 0 0 0-.018-.026l-.386-.2-.379-.241-.111-.081-.091-.068c-.157-.126-.314-.251-.461-.389a6.691 6.691 0 0 1-.71-.783l-.068-.091-.08-.111-.241-.379-.094-.165-.01-.022-.222-.456a4.992 4.992 0 0 1-.043-.11.093.093 0 0 1-.008-.013 6.678 6.678 0 0 1-.236-.716c-.031-.128-.059-.256-.089-.385a.069.069 0 0 0-.025-.058.212.212 0 0 0 0-.079 18.322 18.322 0 0 0-.037-.23v-.026c0-.01 0-.012-.012-.015a.437.437 0 0 0 0-.12l-.023-.27v-.134c.006-.2 0-.407.012-.611a6.046 6.046 0 0 1 .238-1.321 5.854 5.854 0 0 1 .5-1.184c.008-.015.015-.032.022-.048a.147.147 0 0 0 .039-.067q.133-.209.269-.417l.01-.015.023-.033.11-.147.033-.042c.111-.132.22-.264.337-.39a6.755 6.755 0 0 1 .693-.64l.042-.033.147-.11.031-.058.015-.01.417-.269a.145.145 0 0 0 .067-.038l.159-.083c.184-.1.378-.18.569-.268l.417-.149a8.208 8.208 0 0 1 .941-.216h.027l.323-.039h.041c.228-.016.457-.013.686-.014h.134l.27.023.051.007a.107.107 0 0 0 .07.007h.027c.143.034.29.048.434.078a5.906 5.906 0 0 1 1.608.581.262.262 0 0 0 .03.013l.032.01a1.113 1.113 0 0 0 .175.1l.35.226.11.08.095.061c.156.126.313.251.46.389a6.6 6.6 0 0 1 .711.783l.067.091.08.111.224.351.114.2.114.235.069.146a7.486 7.486 0 0 1 .287.782c.061.209.108.422.151.635 0 .013 0 .026.007.038l.036.23v.04a.168.168 0 0 0 .012.094v.027a2.933 2.933 0 0 0 .025.3v.108c0 .233 0 .467-.014.7a.247.247 0 0 0 0 .027l-.052.417v.027c-.044.2-.077.4-.133.6l-.076.263c-.047.135-.1.269-.142.4-.108.247-.223.49-.35.727a.168.168 0 0 0-.011.018l-.01.019-.283.444a.128.128 0 0 0-.01.015l-.023.033-.11.147-.033.042c-.111.131-.219.264-.336.39a6.806 6.806 0 0 1-.694.64l-.041.033-.163.122-.017.011-.018.011-.443.285-.019.01-.017.011-.154.08c-.186.1-.381.182-.573.27l-.418.149c-.2.055-.406.115-.613.154l-.328.062h-.027l-.323.038h-.036a4.677 4.677 0 0 1-.699.035Zm-2.371-9.954a.062.062 0 0 0-.041.027.854.854 0 0 0-.16.109l-.028.02a3.516 3.516 0 0 0-.434.358 4.2 4.2 0 0 0-.581.658l-.02.028a.865.865 0 0 0-.11.161.064.064 0 0 0-.027.041l-.028.041a.17.17 0 0 1-.011.018 1.729 1.729 0 0 0-.159.275 2.9 2.9 0 0 0-.241.525 1.535 1.535 0 0 0-.106.3 3.97 3.97 0 0 0-.186.889v.027a2.038 2.038 0 0 0-.025.39v.108a1.8 1.8 0 0 0 .012.336v.041a3.875 3.875 0 0 0 .173.943.054.054 0 0 0 .012.046 2.438 2.438 0 0 0 .159.445 1 1 0 0 0 .095.216 3.516 3.516 0 0 0 .363.633l.028.041.009.013a.08.08 0 0 0 .031.041.216.216 0 0 0 .056.079 2.811 2.811 0 0 0 .294.362 4.147 4.147 0 0 0 .674.607.269.269 0 0 0 .081.059.463.463 0 0 0 .108.076 3.612 3.612 0 0 0 .618.351 1 1 0 0 0 .215.1 2.585 2.585 0 0 0 .445.16.054.054 0 0 0 .046.012 3.3 3.3 0 0 0 .686.146h.027a.92.92 0 0 0 .229.025h.04a1.687 1.687 0 0 0 .337.012h.121a1.989 1.989 0 0 0 .377-.025h.027a2.034 2.034 0 0 0 .3-.04 3.673 3.673 0 0 0 .631-.16 1.2 1.2 0 0 0 .262-.093 2.98 2.98 0 0 0 .525-.242 1.92 1.92 0 0 0 .31-.182l.069-.046a.825.825 0 0 0 .16-.109.03.03 0 0 0 .024-.017 3.64 3.64 0 0 0 .458-.38 4.115 4.115 0 0 0 .56-.638.044.044 0 0 0 .022-.029.862.862 0 0 0 .109-.161l.012-.018a2.065 2.065 0 0 0 .212-.356 2.986 2.986 0 0 0 .242-.525 1.166 1.166 0 0 0 .09-.249 4.045 4.045 0 0 0 .2-.942.249.249 0 0 0 0-.027.986.986 0 0 0 .016-.3v-.065c.007 0 .013-.005.01-.015v-.122a1.646 1.646 0 0 0-.012-.336v-.041a1.594 1.594 0 0 0-.038-.323v-.027a3.081 3.081 0 0 0-.132-.593.184.184 0 0 0-.028-.094 2.234 2.234 0 0 0-.146-.4 1.006 1.006 0 0 0-.1-.216.314.314 0 0 0-.053-.108 3.161 3.161 0 0 0-.3-.51.438.438 0 0 0-.077-.109.46.46 0 0 0-.062-.107l-.02-.022a2.565 2.565 0 0 0-.254-.309 4.04 4.04 0 0 0-.62-.566l-.026-.02-.013-.009a.313.313 0 0 0-.1-.068l-.041-.031-.013-.009-.033-.027a3.053 3.053 0 0 0-.5-.3 1.966 1.966 0 0 0-.341-.158.861.861 0 0 0-.172-.071 4.251 4.251 0 0 0-.927-.239h-.028a.106.106 0 0 0-.067-.012h-.027a.966.966 0 0 0-.228-.025h-.041a1.693 1.693 0 0 0-.336-.012h-.133a1.958 1.958 0 0 0-.363.025h-.027a2.194 2.194 0 0 0-.3.04 3.752 3.752 0 0 0-.592.146 1.665 1.665 0 0 0-.309.109 3.07 3.07 0 0 0-.525.242 1.782 1.782 0 0 0-.274.159l-.018.012Z" class="cls-1" data-name="&lt;Compound Path&gt;"/><path id="_Compound_Path_10" d="M261.05 11.861H259.444a.134.134 0 0 1-.161-.106c-.036-.091-.086-.175-.13-.262l-.1-.2-.094-.188a15.356 15.356 0 0 0-.39-.794 1.973 1.973 0 0 0-.3-.491.88.88 0 0 0-.694-.316c-.174-.019-.349 0-.524-.009-.014 0-.027 0-.024.023V11.7a.361.361 0 0 0 0 .08c.01.066-.012.084-.081.083h-1.524a.954.954 0 0 1 0-.2V6.837c0-.236-.006-.473 0-.709v-.442c0-.049.016-.061.066-.061h2.688l.3.022h.053a.148.148 0 0 0 .082.01h.026l.445.09.018.005a2.373 2.373 0 0 1 .566.257l.013.009.161.135.06.066a1.672 1.672 0 0 1 .26.445l.054.188a.677.677 0 0 0 .027.148v.027a2.687 2.687 0 0 1 0 .6 1.487 1.487 0 0 1-.337.794 1.7 1.7 0 0 1-.524.4l-.054.026-.164.062-.1.032.184.059a1.558 1.558 0 0 1 .4.282l.092.1a3.711 3.711 0 0 1 .368.553l.171.342v.006c.092.2.191.4.3.595a.671.671 0 0 0 .078.165l.386.782c.008.019.008.028.009.036Zm-3.418-5.075h-.2a.188.188 0 0 0-.1.008.012.012 0 0 0 0-.006h-.261c-.035 0-.04.012-.04.043v1.514c0 .034.006.047.044.047.289-.005.579.013.867-.015a.829.829 0 0 0 .422-.131.064.064 0 0 0 .041-.028.456.456 0 0 0 .191-.269.815.815 0 0 0 .058-.327.9.9 0 0 0-.075-.443.2.2 0 0 0-.042-.082.314.314 0 0 0-.117-.132.074.074 0 0 0-.044-.03 1.047 1.047 0 0 0-.58-.144h-.162Z" class="cls-1" data-name="&lt;Compound Path&gt;"/></g></svg>